<mxfile host="app.diagrams.net" modified="2024-04-17T15:07:31.722Z" agent="Mozilla/5.0 (Macintosh; Intel Mac OS X 10_15_7) AppleWebKit/537.36 (KHTML, like Gecko) Chrome/123.0.0.0 Safari/537.36" etag="kAe0oJRhKWkPvX_0SmuZ" version="24.2.3" type="device">
  <diagram name="Page-1" id="-e5Nr61yLDi03Mozg54l">
    <mxGraphModel dx="1025" dy="1823" grid="1" gridSize="10" guides="1" tooltips="1" connect="1" arrows="1" fold="1" page="1" pageScale="1" pageWidth="827" pageHeight="1169" math="0" shadow="0">
      <root>
        <mxCell id="0" />
        <mxCell id="1" parent="0" />
        <mxCell id="lveurod9TtLe9vHSPx2q-1" value="Player" style="rounded=1;whiteSpace=wrap;html=1;" parent="1" vertex="1">
          <mxGeometry x="538.5" y="380" width="80" height="50" as="geometry" />
        </mxCell>
        <mxCell id="lveurod9TtLe9vHSPx2q-2" value="name" style="ellipse;whiteSpace=wrap;html=1;" parent="1" vertex="1">
          <mxGeometry x="448.5" y="350" width="60" height="40" as="geometry" />
        </mxCell>
        <mxCell id="lveurod9TtLe9vHSPx2q-7" value="" style="endArrow=none;html=1;rounded=0;exitX=1;exitY=0.5;exitDx=0;exitDy=0;entryX=0;entryY=0;entryDx=0;entryDy=0;" parent="1" source="lveurod9TtLe9vHSPx2q-2" target="lveurod9TtLe9vHSPx2q-1" edge="1">
          <mxGeometry width="50" height="50" relative="1" as="geometry">
            <mxPoint x="498.5" y="430" as="sourcePoint" />
            <mxPoint x="548.5" y="380" as="targetPoint" />
          </mxGeometry>
        </mxCell>
        <mxCell id="lveurod9TtLe9vHSPx2q-9" value="" style="endArrow=none;html=1;rounded=0;entryX=0.25;entryY=0;entryDx=0;entryDy=0;exitX=0.906;exitY=0.736;exitDx=0;exitDy=0;exitPerimeter=0;" parent="1" target="lveurod9TtLe9vHSPx2q-1" edge="1">
          <mxGeometry width="50" height="50" relative="1" as="geometry">
            <mxPoint x="512.8600000000001" y="329.44000000000005" as="sourcePoint" />
            <mxPoint x="557.5" y="379" as="targetPoint" />
          </mxGeometry>
        </mxCell>
        <mxCell id="lveurod9TtLe9vHSPx2q-11" value="height" style="ellipse;whiteSpace=wrap;html=1;" parent="1" vertex="1">
          <mxGeometry x="388.5" y="490" width="60" height="40" as="geometry" />
        </mxCell>
        <mxCell id="lveurod9TtLe9vHSPx2q-12" value="weight" style="ellipse;whiteSpace=wrap;html=1;" parent="1" vertex="1">
          <mxGeometry x="484" y="460" width="60" height="40" as="geometry" />
        </mxCell>
        <mxCell id="lveurod9TtLe9vHSPx2q-13" value="nationality" style="ellipse;whiteSpace=wrap;html=1;" parent="1" vertex="1">
          <mxGeometry x="653" y="450" width="70" height="40" as="geometry" />
        </mxCell>
        <mxCell id="lveurod9TtLe9vHSPx2q-15" value="" style="endArrow=none;html=1;rounded=0;entryX=0;entryY=1;entryDx=0;entryDy=0;exitX=0.751;exitY=0.035;exitDx=0;exitDy=0;exitPerimeter=0;" parent="1" source="lveurod9TtLe9vHSPx2q-11" target="lveurod9TtLe9vHSPx2q-1" edge="1">
          <mxGeometry width="50" height="50" relative="1" as="geometry">
            <mxPoint x="498.5" y="420" as="sourcePoint" />
            <mxPoint x="548.5" y="370" as="targetPoint" />
          </mxGeometry>
        </mxCell>
        <mxCell id="lveurod9TtLe9vHSPx2q-16" value="" style="endArrow=none;html=1;rounded=0;exitX=0.701;exitY=0.077;exitDx=0;exitDy=0;exitPerimeter=0;" parent="1" source="lveurod9TtLe9vHSPx2q-12" edge="1">
          <mxGeometry width="50" height="50" relative="1" as="geometry">
            <mxPoint x="518.5" y="460" as="sourcePoint" />
            <mxPoint x="558.5" y="430" as="targetPoint" />
          </mxGeometry>
        </mxCell>
        <mxCell id="lveurod9TtLe9vHSPx2q-17" value="" style="endArrow=none;html=1;rounded=0;exitX=0.263;exitY=0.035;exitDx=0;exitDy=0;entryX=1;entryY=1;entryDx=0;entryDy=0;exitPerimeter=0;" parent="1" source="lveurod9TtLe9vHSPx2q-13" target="lveurod9TtLe9vHSPx2q-1" edge="1">
          <mxGeometry width="50" height="50" relative="1" as="geometry">
            <mxPoint x="553.5" y="490" as="sourcePoint" />
            <mxPoint x="578.5" y="430" as="targetPoint" />
          </mxGeometry>
        </mxCell>
        <mxCell id="gVMDVW7nS_Y234lzFyvO-44" style="edgeStyle=orthogonalEdgeStyle;rounded=0;orthogonalLoop=1;jettySize=auto;html=1;entryX=0.5;entryY=0;entryDx=0;entryDy=0;endArrow=none;endFill=0;" parent="1" source="lveurod9TtLe9vHSPx2q-19" target="lveurod9TtLe9vHSPx2q-20" edge="1">
          <mxGeometry relative="1" as="geometry" />
        </mxCell>
        <mxCell id="lveurod9TtLe9vHSPx2q-19" value="Club" style="rounded=1;whiteSpace=wrap;html=1;" parent="1" vertex="1">
          <mxGeometry x="538.5" y="120" width="80" height="50" as="geometry" />
        </mxCell>
        <mxCell id="lveurod9TtLe9vHSPx2q-20" value="contains" style="rhombus;whiteSpace=wrap;html=1;" parent="1" vertex="1">
          <mxGeometry x="543.5" y="250" width="70" height="70" as="geometry" />
        </mxCell>
        <mxCell id="lveurod9TtLe9vHSPx2q-25" value="name" style="ellipse;whiteSpace=wrap;html=1;" parent="1" vertex="1">
          <mxGeometry x="453.25" y="178" width="60" height="40" as="geometry" />
        </mxCell>
        <mxCell id="lveurod9TtLe9vHSPx2q-26" value="" style="endArrow=none;html=1;rounded=0;exitX=1;exitY=0;exitDx=0;exitDy=0;entryX=0;entryY=1;entryDx=0;entryDy=0;" parent="1" source="lveurod9TtLe9vHSPx2q-25" target="lveurod9TtLe9vHSPx2q-19" edge="1">
          <mxGeometry width="50" height="50" relative="1" as="geometry">
            <mxPoint x="384.75" y="178" as="sourcePoint" />
            <mxPoint x="537.75" y="108" as="targetPoint" />
          </mxGeometry>
        </mxCell>
        <mxCell id="lveurod9TtLe9vHSPx2q-27" value="&lt;u&gt;id&lt;/u&gt;" style="ellipse;whiteSpace=wrap;html=1;" parent="1" vertex="1">
          <mxGeometry x="670" y="295" width="60" height="40" as="geometry" />
        </mxCell>
        <mxCell id="lveurod9TtLe9vHSPx2q-28" value="" style="endArrow=none;html=1;rounded=0;entryX=0;entryY=1;entryDx=0;entryDy=0;" parent="1" target="lveurod9TtLe9vHSPx2q-27" edge="1">
          <mxGeometry width="50" height="50" relative="1" as="geometry">
            <mxPoint x="600" y="380" as="sourcePoint" />
            <mxPoint x="808.5" y="410" as="targetPoint" />
          </mxGeometry>
        </mxCell>
        <mxCell id="lveurod9TtLe9vHSPx2q-30" style="edgeStyle=orthogonalEdgeStyle;rounded=0;orthogonalLoop=1;jettySize=auto;html=1;entryX=0.5;entryY=1;entryDx=0;entryDy=0;endArrow=none;endFill=0;exitX=0.937;exitY=0.496;exitDx=0;exitDy=0;exitPerimeter=0;" parent="1" source="lveurod9TtLe9vHSPx2q-36" target="lveurod9TtLe9vHSPx2q-1" edge="1">
          <mxGeometry relative="1" as="geometry">
            <mxPoint x="381.5" y="520" as="sourcePoint" />
          </mxGeometry>
        </mxCell>
        <mxCell id="lveurod9TtLe9vHSPx2q-35" style="edgeStyle=orthogonalEdgeStyle;rounded=0;orthogonalLoop=1;jettySize=auto;html=1;endArrow=none;endFill=0;" parent="1" source="lveurod9TtLe9vHSPx2q-34" target="lveurod9TtLe9vHSPx2q-19" edge="1">
          <mxGeometry relative="1" as="geometry" />
        </mxCell>
        <mxCell id="lveurod9TtLe9vHSPx2q-34" value="&lt;u&gt;id&lt;/u&gt;" style="ellipse;whiteSpace=wrap;html=1;" parent="1" vertex="1">
          <mxGeometry x="423" y="125" width="60" height="40" as="geometry" />
        </mxCell>
        <mxCell id="lveurod9TtLe9vHSPx2q-36" value="&lt;div&gt;&lt;br&gt;&lt;/div&gt;is-a" style="triangle;whiteSpace=wrap;html=1;direction=north;rounded=1;" parent="1" vertex="1">
          <mxGeometry x="538.5" y="520" width="80" height="60" as="geometry" />
        </mxCell>
        <mxCell id="lveurod9TtLe9vHSPx2q-38" value="&lt;font style=&quot;font-size: 10px;&quot;&gt;&lt;b&gt;disjoint&lt;/b&gt;&lt;/font&gt;" style="text;html=1;align=center;verticalAlign=middle;whiteSpace=wrap;rounded=0;" parent="1" vertex="1">
          <mxGeometry x="588.5" y="510" width="60" height="30" as="geometry" />
        </mxCell>
        <mxCell id="lveurod9TtLe9vHSPx2q-40" value="" style="endArrow=none;html=1;rounded=0;exitX=0.5;exitY=0;exitDx=0;exitDy=0;entryX=0;entryY=0.25;entryDx=0;entryDy=0;" parent="1" source="gDkARE-d8XjFW2ROX1zC-45" target="lveurod9TtLe9vHSPx2q-36" edge="1">
          <mxGeometry width="50" height="50" relative="1" as="geometry">
            <mxPoint x="508.5" y="615" as="sourcePoint" />
            <mxPoint x="371.5" y="580" as="targetPoint" />
          </mxGeometry>
        </mxCell>
        <mxCell id="lveurod9TtLe9vHSPx2q-41" value="" style="endArrow=none;html=1;rounded=0;entryX=0.5;entryY=0;entryDx=0;entryDy=0;exitX=0;exitY=0.75;exitDx=0;exitDy=0;" parent="1" source="lveurod9TtLe9vHSPx2q-36" edge="1">
          <mxGeometry width="50" height="50" relative="1" as="geometry">
            <mxPoint x="361.5" y="690" as="sourcePoint" />
            <mxPoint x="661.5" y="620" as="targetPoint" />
          </mxGeometry>
        </mxCell>
        <mxCell id="vzFSnmXwqkyDsA1X07gd-61" value="" style="endArrow=none;html=1;rounded=0;entryX=0.5;entryY=0;entryDx=0;entryDy=0;exitX=0.686;exitY=0.979;exitDx=0;exitDy=0;exitPerimeter=0;" parent="1" source="lveurod9TtLe9vHSPx2q-1" target="lveurod9TtLe9vHSPx2q-10" edge="1">
          <mxGeometry width="50" height="50" relative="1" as="geometry">
            <mxPoint x="570" y="430" as="sourcePoint" />
            <mxPoint x="592.5" y="310" as="targetPoint" />
          </mxGeometry>
        </mxCell>
        <mxCell id="lveurod9TtLe9vHSPx2q-10" value="foot" style="ellipse;whiteSpace=wrap;html=1;" parent="1" vertex="1">
          <mxGeometry x="588.5" y="460" width="60" height="40" as="geometry" />
        </mxCell>
        <mxCell id="vzFSnmXwqkyDsA1X07gd-124" value="Position" style="rounded=1;whiteSpace=wrap;html=1;" parent="1" vertex="1">
          <mxGeometry x="918.25" y="270" width="80" height="50" as="geometry" />
        </mxCell>
        <mxCell id="vzFSnmXwqkyDsA1X07gd-125" value="&lt;u&gt;id&lt;/u&gt;" style="ellipse;whiteSpace=wrap;html=1;" parent="1" vertex="1">
          <mxGeometry x="832" y="275" width="60" height="40" as="geometry" />
        </mxCell>
        <mxCell id="gVMDVW7nS_Y234lzFyvO-42" style="edgeStyle=orthogonalEdgeStyle;rounded=0;orthogonalLoop=1;jettySize=auto;html=1;exitX=0;exitY=0.5;exitDx=0;exitDy=0;entryX=1;entryY=0.5;entryDx=0;entryDy=0;endArrow=none;endFill=0;" parent="1" source="vzFSnmXwqkyDsA1X07gd-126" target="vzFSnmXwqkyDsA1X07gd-124" edge="1">
          <mxGeometry relative="1" as="geometry" />
        </mxCell>
        <mxCell id="vzFSnmXwqkyDsA1X07gd-126" value="name" style="ellipse;whiteSpace=wrap;html=1;" parent="1" vertex="1">
          <mxGeometry x="1020" y="275" width="60" height="40" as="geometry" />
        </mxCell>
        <mxCell id="vzFSnmXwqkyDsA1X07gd-127" value="" style="endArrow=none;html=1;rounded=0;exitX=1;exitY=0.5;exitDx=0;exitDy=0;entryX=0;entryY=0.5;entryDx=0;entryDy=0;" parent="1" source="vzFSnmXwqkyDsA1X07gd-125" target="vzFSnmXwqkyDsA1X07gd-124" edge="1">
          <mxGeometry width="50" height="50" relative="1" as="geometry">
            <mxPoint x="846" y="280.5" as="sourcePoint" />
            <mxPoint x="896" y="230.49999999999997" as="targetPoint" />
          </mxGeometry>
        </mxCell>
        <mxCell id="vzFSnmXwqkyDsA1X07gd-129" value="&lt;u&gt;id&lt;/u&gt;" style="ellipse;whiteSpace=wrap;html=1;" parent="1" vertex="1">
          <mxGeometry x="1241" y="480" width="60" height="40" as="geometry" />
        </mxCell>
        <mxCell id="vzFSnmXwqkyDsA1X07gd-130" value="name" style="ellipse;whiteSpace=wrap;html=1;" parent="1" vertex="1">
          <mxGeometry x="1105.87" y="315.5" width="60" height="40" as="geometry" />
        </mxCell>
        <mxCell id="vzFSnmXwqkyDsA1X07gd-131" value="" style="endArrow=none;html=1;rounded=0;entryX=1;entryY=1;entryDx=0;entryDy=0;" parent="1" source="vzFSnmXwqkyDsA1X07gd-129" target="vzFSnmXwqkyDsA1X07gd-133" edge="1">
          <mxGeometry width="50" height="50" relative="1" as="geometry">
            <mxPoint x="1231.87" y="583.5" as="sourcePoint" />
            <mxPoint x="1281.87" y="533.5" as="targetPoint" />
          </mxGeometry>
        </mxCell>
        <mxCell id="vzFSnmXwqkyDsA1X07gd-132" value="" style="endArrow=none;html=1;rounded=0;exitX=0.566;exitY=1.005;exitDx=0;exitDy=0;entryX=0.5;entryY=0;entryDx=0;entryDy=0;exitPerimeter=0;" parent="1" source="vzFSnmXwqkyDsA1X07gd-130" target="vzFSnmXwqkyDsA1X07gd-133" edge="1">
          <mxGeometry width="50" height="50" relative="1" as="geometry">
            <mxPoint x="1130.87" y="502.5" as="sourcePoint" />
            <mxPoint x="1153.87" y="473.5" as="targetPoint" />
          </mxGeometry>
        </mxCell>
        <mxCell id="vzFSnmXwqkyDsA1X07gd-133" value="Role" style="rounded=1;whiteSpace=wrap;html=1;" parent="1" vertex="1">
          <mxGeometry x="1100" y="379.52" width="80.37" height="52.48" as="geometry" />
        </mxCell>
        <mxCell id="BPTk4Z4PryNuK3dZAGBa-28" value="wage" style="ellipse;whiteSpace=wrap;html=1;" parent="1" vertex="1">
          <mxGeometry x="204.5" y="300" width="60" height="40" as="geometry" />
        </mxCell>
        <mxCell id="BPTk4Z4PryNuK3dZAGBa-29" value="duration" style="ellipse;whiteSpace=wrap;html=1;" parent="1" vertex="1">
          <mxGeometry x="90" y="450" width="60" height="40" as="geometry" />
        </mxCell>
        <mxCell id="BPTk4Z4PryNuK3dZAGBa-30" value="release_clause" style="ellipse;whiteSpace=wrap;html=1;" parent="1" vertex="1">
          <mxGeometry x="70" y="335" width="100" height="40" as="geometry" />
        </mxCell>
        <mxCell id="BPTk4Z4PryNuK3dZAGBa-31" value="contract_end" style="ellipse;whiteSpace=wrap;html=1;" parent="1" vertex="1">
          <mxGeometry x="185" y="480" width="100" height="40" as="geometry" />
        </mxCell>
        <mxCell id="BPTk4Z4PryNuK3dZAGBa-32" value="value" style="ellipse;whiteSpace=wrap;html=1;" parent="1" vertex="1">
          <mxGeometry x="658" y="342.52" width="60" height="40" as="geometry" />
        </mxCell>
        <mxCell id="BPTk4Z4PryNuK3dZAGBa-35" value="" style="endArrow=none;html=1;rounded=0;entryX=0.5;entryY=1;entryDx=0;entryDy=0;exitX=0.5;exitY=0;exitDx=0;exitDy=0;" parent="1" source="BPTk4Z4PryNuK3dZAGBa-31" edge="1">
          <mxGeometry width="50" height="50" relative="1" as="geometry">
            <mxPoint x="230.4279886949439" y="480.0081582707862" as="sourcePoint" />
            <mxPoint x="234" y="430" as="targetPoint" />
          </mxGeometry>
        </mxCell>
        <mxCell id="BPTk4Z4PryNuK3dZAGBa-36" value="" style="endArrow=none;html=1;rounded=0;entryX=0;entryY=1;entryDx=0;entryDy=0;exitX=1;exitY=0;exitDx=0;exitDy=0;" parent="1" source="BPTk4Z4PryNuK3dZAGBa-29" edge="1">
          <mxGeometry width="50" height="50" relative="1" as="geometry">
            <mxPoint x="173" y="471" as="sourcePoint" />
            <mxPoint x="194" y="430" as="targetPoint" />
          </mxGeometry>
        </mxCell>
        <mxCell id="BPTk4Z4PryNuK3dZAGBa-37" value="" style="endArrow=none;html=1;rounded=0;entryX=0;entryY=0;entryDx=0;entryDy=0;exitX=0.95;exitY=0.715;exitDx=0;exitDy=0;exitPerimeter=0;" parent="1" source="BPTk4Z4PryNuK3dZAGBa-30" edge="1">
          <mxGeometry width="50" height="50" relative="1" as="geometry">
            <mxPoint x="152" y="410" as="sourcePoint" />
            <mxPoint x="194" y="380" as="targetPoint" />
          </mxGeometry>
        </mxCell>
        <mxCell id="BPTk4Z4PryNuK3dZAGBa-38" value="" style="endArrow=none;html=1;rounded=0;entryX=0.5;entryY=0;entryDx=0;entryDy=0;exitX=0.5;exitY=1;exitDx=0;exitDy=0;" parent="1" source="BPTk4Z4PryNuK3dZAGBa-28" edge="1">
          <mxGeometry width="50" height="50" relative="1" as="geometry">
            <mxPoint x="238" y="340" as="sourcePoint" />
            <mxPoint x="234" y="380" as="targetPoint" />
          </mxGeometry>
        </mxCell>
        <mxCell id="BPTk4Z4PryNuK3dZAGBa-39" value="has a" style="rhombus;whiteSpace=wrap;html=1;" parent="1" vertex="1">
          <mxGeometry x="357.5" y="375" width="60" height="60" as="geometry" />
        </mxCell>
        <mxCell id="BPTk4Z4PryNuK3dZAGBa-43" value="best_role" style="ellipse;whiteSpace=wrap;html=1;" parent="1" vertex="1">
          <mxGeometry x="398.5" y="435" width="60" height="40" as="geometry" />
        </mxCell>
        <mxCell id="BPTk4Z4PryNuK3dZAGBa-65" value="" style="shape=link;html=1;rounded=0;" parent="1" target="BPTk4Z4PryNuK3dZAGBa-39" edge="1">
          <mxGeometry width="100" relative="1" as="geometry">
            <mxPoint x="274" y="404.76" as="sourcePoint" />
            <mxPoint x="350" y="420" as="targetPoint" />
          </mxGeometry>
        </mxCell>
        <mxCell id="BPTk4Z4PryNuK3dZAGBa-66" value="" style="shape=link;html=1;rounded=0;entryX=0;entryY=0.5;entryDx=0;entryDy=0;exitX=0.97;exitY=0.494;exitDx=0;exitDy=0;exitPerimeter=0;" parent="1" source="BPTk4Z4PryNuK3dZAGBa-39" target="lveurod9TtLe9vHSPx2q-1" edge="1">
          <mxGeometry width="100" relative="1" as="geometry">
            <mxPoint x="420" y="405" as="sourcePoint" />
            <mxPoint x="503" y="405" as="targetPoint" />
          </mxGeometry>
        </mxCell>
        <mxCell id="BPTk4Z4PryNuK3dZAGBa-68" value="N" style="text;html=1;align=center;verticalAlign=middle;whiteSpace=wrap;rounded=0;" parent="1" vertex="1">
          <mxGeometry x="558" y="350" width="22.75" height="30" as="geometry" />
        </mxCell>
        <mxCell id="BPTk4Z4PryNuK3dZAGBa-72" value="" style="endArrow=none;html=1;rounded=0;exitX=0.75;exitY=0;exitDx=0;exitDy=0;" parent="1" source="lveurod9TtLe9vHSPx2q-1" target="BPTk4Z4PryNuK3dZAGBa-32" edge="1">
          <mxGeometry width="50" height="50" relative="1" as="geometry">
            <mxPoint x="430" y="460" as="sourcePoint" />
            <mxPoint x="480" y="410" as="targetPoint" />
          </mxGeometry>
        </mxCell>
        <mxCell id="gDkARE-d8XjFW2ROX1zC-1" value="Nation" style="rounded=1;whiteSpace=wrap;html=1;" parent="1" vertex="1">
          <mxGeometry x="752" y="120" width="80" height="50" as="geometry" />
        </mxCell>
        <mxCell id="gDkARE-d8XjFW2ROX1zC-2" value="contains" style="rhombus;whiteSpace=wrap;html=1;" parent="1" vertex="1">
          <mxGeometry x="757" y="230" width="70" height="70" as="geometry" />
        </mxCell>
        <mxCell id="gVMDVW7nS_Y234lzFyvO-111" style="edgeStyle=orthogonalEdgeStyle;rounded=0;orthogonalLoop=1;jettySize=auto;html=1;exitX=0.5;exitY=0;exitDx=0;exitDy=0;entryX=0.5;entryY=1;entryDx=0;entryDy=0;endArrow=none;endFill=0;" parent="1" source="gDkARE-d8XjFW2ROX1zC-3" target="gDkARE-d8XjFW2ROX1zC-22" edge="1">
          <mxGeometry relative="1" as="geometry" />
        </mxCell>
        <mxCell id="gDkARE-d8XjFW2ROX1zC-3" value="League" style="rounded=1;whiteSpace=wrap;html=1;" parent="1" vertex="1">
          <mxGeometry x="670" y="23" width="80" height="50" as="geometry" />
        </mxCell>
        <mxCell id="gDkARE-d8XjFW2ROX1zC-4" value="" style="shape=link;html=1;rounded=1;exitX=1;exitY=0.25;exitDx=0;exitDy=0;entryX=0.5;entryY=1;entryDx=0;entryDy=0;" parent="1" source="lveurod9TtLe9vHSPx2q-1" target="gDkARE-d8XjFW2ROX1zC-2" edge="1">
          <mxGeometry width="100" relative="1" as="geometry">
            <mxPoint x="770" y="330" as="sourcePoint" />
            <mxPoint x="870" y="330" as="targetPoint" />
            <Array as="points">
              <mxPoint x="792" y="393" />
            </Array>
          </mxGeometry>
        </mxCell>
        <mxCell id="gDkARE-d8XjFW2ROX1zC-14" style="edgeStyle=orthogonalEdgeStyle;rounded=0;orthogonalLoop=1;jettySize=auto;html=1;entryX=1;entryY=0.5;entryDx=0;entryDy=0;endArrow=none;endFill=0;" parent="1" source="gDkARE-d8XjFW2ROX1zC-13" target="gDkARE-d8XjFW2ROX1zC-1" edge="1">
          <mxGeometry relative="1" as="geometry" />
        </mxCell>
        <mxCell id="gDkARE-d8XjFW2ROX1zC-13" value="&lt;u&gt;name&lt;/u&gt;" style="ellipse;whiteSpace=wrap;html=1;" parent="1" vertex="1">
          <mxGeometry x="850" y="125" width="60" height="40" as="geometry" />
        </mxCell>
        <mxCell id="gDkARE-d8XjFW2ROX1zC-15" value="plays in" style="rhombus;whiteSpace=wrap;html=1;" parent="1" vertex="1">
          <mxGeometry x="543.5" y="13" width="70" height="70" as="geometry" />
        </mxCell>
        <mxCell id="gDkARE-d8XjFW2ROX1zC-19" value="" style="shape=link;html=1;rounded=0;exitX=0.5;exitY=0;exitDx=0;exitDy=0;entryX=0.5;entryY=1;entryDx=0;entryDy=0;" parent="1" source="lveurod9TtLe9vHSPx2q-19" target="gDkARE-d8XjFW2ROX1zC-15" edge="1">
          <mxGeometry width="100" relative="1" as="geometry">
            <mxPoint x="503.5" y="28" as="sourcePoint" />
            <mxPoint x="563.5" y="28" as="targetPoint" />
          </mxGeometry>
        </mxCell>
        <mxCell id="gDkARE-d8XjFW2ROX1zC-21" value="" style="shape=link;html=1;rounded=0;exitX=1;exitY=0.5;exitDx=0;exitDy=0;entryX=0;entryY=0.5;entryDx=0;entryDy=0;" parent="1" source="gDkARE-d8XjFW2ROX1zC-15" target="gDkARE-d8XjFW2ROX1zC-3" edge="1">
          <mxGeometry width="100" relative="1" as="geometry">
            <mxPoint x="523.5" y="38" as="sourcePoint" />
            <mxPoint x="623.5" y="38" as="targetPoint" />
          </mxGeometry>
        </mxCell>
        <mxCell id="gDkARE-d8XjFW2ROX1zC-22" value="&lt;u&gt;id&lt;/u&gt;" style="ellipse;whiteSpace=wrap;html=1;" parent="1" vertex="1">
          <mxGeometry x="682.42" y="-40" width="60" height="40" as="geometry" />
        </mxCell>
        <mxCell id="gDkARE-d8XjFW2ROX1zC-25" value="name" style="ellipse;whiteSpace=wrap;html=1;" parent="1" vertex="1">
          <mxGeometry x="773.5" y="28" width="60" height="40" as="geometry" />
        </mxCell>
        <mxCell id="gDkARE-d8XjFW2ROX1zC-32" value="" style="endArrow=none;html=1;rounded=0;entryX=0;entryY=0.5;entryDx=0;entryDy=0;exitX=1;exitY=0.5;exitDx=0;exitDy=0;" parent="1" source="gDkARE-d8XjFW2ROX1zC-3" target="gDkARE-d8XjFW2ROX1zC-25" edge="1">
          <mxGeometry width="50" height="50" relative="1" as="geometry">
            <mxPoint x="643.5" y="28" as="sourcePoint" />
            <mxPoint x="693.5" y="-22" as="targetPoint" />
          </mxGeometry>
        </mxCell>
        <mxCell id="gDkARE-d8XjFW2ROX1zC-33" value="founded_date" style="ellipse;whiteSpace=wrap;html=1;" parent="1" vertex="1">
          <mxGeometry x="619.5" y="228" width="84" height="40" as="geometry" />
        </mxCell>
        <mxCell id="gDkARE-d8XjFW2ROX1zC-34" value="" style="endArrow=none;html=1;rounded=0;entryX=0.306;entryY=0.033;entryDx=0;entryDy=0;exitX=1;exitY=1;exitDx=0;exitDy=0;entryPerimeter=0;" parent="1" source="lveurod9TtLe9vHSPx2q-19" target="gDkARE-d8XjFW2ROX1zC-33" edge="1">
          <mxGeometry width="50" height="50" relative="1" as="geometry">
            <mxPoint x="454.75" y="188" as="sourcePoint" />
            <mxPoint x="504.75" y="138" as="targetPoint" />
          </mxGeometry>
        </mxCell>
        <mxCell id="gdB1Cb4Rjj0UtszeyYK0-44" style="edgeStyle=orthogonalEdgeStyle;rounded=0;orthogonalLoop=1;jettySize=auto;html=1;exitX=0.5;exitY=1;exitDx=0;exitDy=0;entryX=0.5;entryY=0;entryDx=0;entryDy=0;endArrow=none;endFill=0;" edge="1" parent="1" source="gDkARE-d8XjFW2ROX1zC-45" target="gdB1Cb4Rjj0UtszeyYK0-41">
          <mxGeometry relative="1" as="geometry">
            <Array as="points">
              <mxPoint x="508" y="680" />
              <mxPoint x="508" y="680" />
            </Array>
          </mxGeometry>
        </mxCell>
        <mxCell id="gDkARE-d8XjFW2ROX1zC-45" value="Outfield" style="shape=ext;margin=3;double=1;whiteSpace=wrap;html=1;align=center;rounded=1;" parent="1" vertex="1">
          <mxGeometry x="458" y="617" width="100" height="53" as="geometry" />
        </mxCell>
        <mxCell id="gDkARE-d8XjFW2ROX1zC-49" value="rating" style="ellipse;whiteSpace=wrap;html=1;align=center;dashed=1;" parent="1" vertex="1">
          <mxGeometry x="908.25" y="470" width="100" height="40" as="geometry" />
        </mxCell>
        <mxCell id="gDkARE-d8XjFW2ROX1zC-50" value="age" style="ellipse;whiteSpace=wrap;html=1;align=center;dashed=1;" parent="1" vertex="1">
          <mxGeometry x="423" y="300" width="100" height="40" as="geometry" />
        </mxCell>
        <mxCell id="gDkARE-d8XjFW2ROX1zC-62" value="" style="endArrow=none;html=1;rounded=0;exitX=0.5;exitY=1;exitDx=0;exitDy=0;entryX=0.5;entryY=0;entryDx=0;entryDy=0;" parent="1" source="gDkARE-d8XjFW2ROX1zC-57" target="gDkARE-d8XjFW2ROX1zC-49" edge="1">
          <mxGeometry width="50" height="50" relative="1" as="geometry">
            <mxPoint x="570" y="210" as="sourcePoint" />
            <mxPoint x="620" y="160" as="targetPoint" />
          </mxGeometry>
        </mxCell>
        <mxCell id="4" value="Goalkeeper" style="shape=ext;margin=3;double=1;whiteSpace=wrap;html=1;align=center;rounded=1;" parent="1" vertex="1">
          <mxGeometry x="610" y="617" width="100" height="53" as="geometry" />
        </mxCell>
        <mxCell id="10" value="Contract" style="shape=ext;margin=3;double=1;whiteSpace=wrap;html=1;align=center;rounded=1;" parent="1" vertex="1">
          <mxGeometry x="190" y="378.5" width="91.5" height="53" as="geometry" />
        </mxCell>
        <mxCell id="gdB1Cb4Rjj0UtszeyYK0-11" style="edgeStyle=orthogonalEdgeStyle;rounded=0;orthogonalLoop=1;jettySize=auto;html=1;exitX=1;exitY=0.5;exitDx=0;exitDy=0;entryX=0.5;entryY=1;entryDx=0;entryDy=0;endArrow=none;endFill=0;" edge="1" parent="1" source="gVMDVW7nS_Y234lzFyvO-10" target="gdB1Cb4Rjj0UtszeyYK0-10">
          <mxGeometry relative="1" as="geometry" />
        </mxCell>
        <mxCell id="gVMDVW7nS_Y234lzFyvO-10" value="Attribute" style="rounded=1;whiteSpace=wrap;html=1;" parent="1" vertex="1">
          <mxGeometry x="980" y="620" width="80" height="50" as="geometry" />
        </mxCell>
        <mxCell id="gVMDVW7nS_Y234lzFyvO-15" style="edgeStyle=orthogonalEdgeStyle;rounded=0;orthogonalLoop=1;jettySize=auto;html=1;entryX=0.5;entryY=0;entryDx=0;entryDy=0;endArrow=none;endFill=0;" parent="1" source="gVMDVW7nS_Y234lzFyvO-11" target="gVMDVW7nS_Y234lzFyvO-10" edge="1">
          <mxGeometry relative="1" as="geometry" />
        </mxCell>
        <mxCell id="gVMDVW7nS_Y234lzFyvO-11" value="&lt;u&gt;name&lt;/u&gt;" style="ellipse;whiteSpace=wrap;html=1;" parent="1" vertex="1">
          <mxGeometry x="985" y="560" width="60" height="40" as="geometry" />
        </mxCell>
        <mxCell id="gVMDVW7nS_Y234lzFyvO-38" style="edgeStyle=orthogonalEdgeStyle;rounded=0;orthogonalLoop=1;jettySize=auto;html=1;exitX=0.5;exitY=0;exitDx=0;exitDy=0;entryX=0.5;entryY=1;entryDx=0;entryDy=0;endArrow=none;endFill=0;" parent="1" target="gVMDVW7nS_Y234lzFyvO-10" edge="1">
          <mxGeometry relative="1" as="geometry">
            <mxPoint x="1019.9999999999998" y="703.25" as="sourcePoint" />
          </mxGeometry>
        </mxCell>
        <mxCell id="gVMDVW7nS_Y234lzFyvO-43" value="" style="shape=link;html=1;rounded=0;exitX=0.5;exitY=1;exitDx=0;exitDy=0;entryX=0.5;entryY=0;entryDx=0;entryDy=0;" parent="1" source="lveurod9TtLe9vHSPx2q-20" target="lveurod9TtLe9vHSPx2q-1" edge="1">
          <mxGeometry width="100" relative="1" as="geometry">
            <mxPoint x="590" y="190" as="sourcePoint" />
            <mxPoint x="690" y="190" as="targetPoint" />
          </mxGeometry>
        </mxCell>
        <mxCell id="gVMDVW7nS_Y234lzFyvO-49" style="edgeStyle=orthogonalEdgeStyle;rounded=0;orthogonalLoop=1;jettySize=auto;html=1;exitX=0.5;exitY=0;exitDx=0;exitDy=0;entryX=0.5;entryY=1;entryDx=0;entryDy=0;endArrow=none;endFill=0;" parent="1" source="gDkARE-d8XjFW2ROX1zC-2" target="gDkARE-d8XjFW2ROX1zC-1" edge="1">
          <mxGeometry relative="1" as="geometry" />
        </mxCell>
        <mxCell id="gVMDVW7nS_Y234lzFyvO-54" value="" style="shape=link;html=1;rounded=1;entryX=0.139;entryY=0.347;entryDx=0;entryDy=0;entryPerimeter=0;exitX=1;exitY=0.5;exitDx=0;exitDy=0;" parent="1" source="lveurod9TtLe9vHSPx2q-19" target="gDkARE-d8XjFW2ROX1zC-2" edge="1">
          <mxGeometry width="100" relative="1" as="geometry">
            <mxPoint x="550" y="180" as="sourcePoint" />
            <mxPoint x="650" y="180" as="targetPoint" />
            <Array as="points">
              <mxPoint x="660" y="145" />
            </Array>
          </mxGeometry>
        </mxCell>
        <mxCell id="gVMDVW7nS_Y234lzFyvO-55" value="" style="shape=link;html=1;rounded=1;entryX=0.323;entryY=0.155;entryDx=0;entryDy=0;exitX=0.5;exitY=1;exitDx=0;exitDy=0;entryPerimeter=0;" parent="1" source="gDkARE-d8XjFW2ROX1zC-3" target="gDkARE-d8XjFW2ROX1zC-2" edge="1">
          <mxGeometry width="100" relative="1" as="geometry">
            <mxPoint x="580" y="180" as="sourcePoint" />
            <mxPoint x="680" y="180" as="targetPoint" />
            <Array as="points">
              <mxPoint x="710" y="170" />
            </Array>
          </mxGeometry>
        </mxCell>
        <mxCell id="gVMDVW7nS_Y234lzFyvO-56" value="" style="shape=link;html=1;rounded=0;" parent="1" target="gDkARE-d8XjFW2ROX1zC-57" edge="1">
          <mxGeometry width="100" relative="1" as="geometry">
            <mxPoint x="618.5" y="405" as="sourcePoint" />
            <mxPoint x="920" y="405" as="targetPoint" />
          </mxGeometry>
        </mxCell>
        <mxCell id="gVMDVW7nS_Y234lzFyvO-57" style="edgeStyle=orthogonalEdgeStyle;rounded=0;orthogonalLoop=1;jettySize=auto;html=1;exitX=0.5;exitY=0;exitDx=0;exitDy=0;entryX=0.5;entryY=1;entryDx=0;entryDy=0;endArrow=none;endFill=0;" parent="1" source="gDkARE-d8XjFW2ROX1zC-57" target="vzFSnmXwqkyDsA1X07gd-124" edge="1">
          <mxGeometry relative="1" as="geometry" />
        </mxCell>
        <mxCell id="gDkARE-d8XjFW2ROX1zC-57" value="can play" style="rhombus;whiteSpace=wrap;html=1;" parent="1" vertex="1">
          <mxGeometry x="928.25" y="375.52" width="60" height="60" as="geometry" />
        </mxCell>
        <mxCell id="gVMDVW7nS_Y234lzFyvO-58" value="" style="endArrow=none;dashed=1;html=1;rounded=0;entryX=1;entryY=0.5;entryDx=0;entryDy=0;exitX=0;exitY=0.5;exitDx=0;exitDy=0;" parent="1" source="vzFSnmXwqkyDsA1X07gd-133" target="gDkARE-d8XjFW2ROX1zC-57" edge="1">
          <mxGeometry width="50" height="50" relative="1" as="geometry">
            <mxPoint x="860" y="550" as="sourcePoint" />
            <mxPoint x="910" y="500" as="targetPoint" />
          </mxGeometry>
        </mxCell>
        <mxCell id="gVMDVW7nS_Y234lzFyvO-70" value="1" style="text;html=1;align=center;verticalAlign=middle;whiteSpace=wrap;rounded=0;" parent="1" vertex="1">
          <mxGeometry x="554" y="170" width="22.75" height="30" as="geometry" />
        </mxCell>
        <mxCell id="gVMDVW7nS_Y234lzFyvO-73" value="N" style="text;html=1;align=center;verticalAlign=middle;whiteSpace=wrap;rounded=0;" parent="1" vertex="1">
          <mxGeometry x="630" y="378.5" width="7.58" height="10" as="geometry" />
        </mxCell>
        <mxCell id="gVMDVW7nS_Y234lzFyvO-74" value="1" style="text;html=1;align=center;verticalAlign=middle;whiteSpace=wrap;rounded=0;" parent="1" vertex="1">
          <mxGeometry x="777.5" y="174" width="7.58" height="10" as="geometry" />
        </mxCell>
        <mxCell id="gVMDVW7nS_Y234lzFyvO-75" value="N" style="text;html=1;align=center;verticalAlign=middle;whiteSpace=wrap;rounded=0;" parent="1" vertex="1">
          <mxGeometry x="630" y="410" width="7.58" height="10" as="geometry" />
        </mxCell>
        <mxCell id="gVMDVW7nS_Y234lzFyvO-76" value="N" style="text;html=1;align=center;verticalAlign=middle;whiteSpace=wrap;rounded=0;" parent="1" vertex="1">
          <mxGeometry x="942.42" y="325" width="7.58" height="10" as="geometry" />
        </mxCell>
        <mxCell id="gVMDVW7nS_Y234lzFyvO-78" value="N" style="text;html=1;align=center;verticalAlign=middle;whiteSpace=wrap;rounded=0;" parent="1" vertex="1">
          <mxGeometry x="1080" y="390" width="7.58" height="10" as="geometry" />
        </mxCell>
        <mxCell id="gVMDVW7nS_Y234lzFyvO-79" value="1" style="text;html=1;align=center;verticalAlign=middle;whiteSpace=wrap;rounded=0;" parent="1" vertex="1">
          <mxGeometry x="523" y="390" width="7.58" height="10" as="geometry" />
        </mxCell>
        <mxCell id="gVMDVW7nS_Y234lzFyvO-80" value="1" style="text;html=1;align=center;verticalAlign=middle;whiteSpace=wrap;rounded=0;" parent="1" vertex="1">
          <mxGeometry x="285" y="388.5" width="7.58" height="10" as="geometry" />
        </mxCell>
        <mxCell id="gVMDVW7nS_Y234lzFyvO-89" value="N" style="text;html=1;align=center;verticalAlign=middle;whiteSpace=wrap;rounded=0;" parent="1" vertex="1">
          <mxGeometry x="1008.2499999999998" y="675.48" width="7.58" height="10" as="geometry" />
        </mxCell>
        <mxCell id="gVMDVW7nS_Y234lzFyvO-98" value="N" style="text;html=1;align=center;verticalAlign=middle;whiteSpace=wrap;rounded=0;" parent="1" vertex="1">
          <mxGeometry x="1067.9999999999998" y="629.5" width="7.58" height="10" as="geometry" />
        </mxCell>
        <mxCell id="gVMDVW7nS_Y234lzFyvO-106" value="N" style="text;html=1;align=center;verticalAlign=middle;whiteSpace=wrap;rounded=0;" parent="1" vertex="1">
          <mxGeometry x="687.25" y="68" width="22.75" height="30" as="geometry" />
        </mxCell>
        <mxCell id="gVMDVW7nS_Y234lzFyvO-107" value="N" style="text;html=1;align=center;verticalAlign=middle;whiteSpace=wrap;rounded=0;" parent="1" vertex="1">
          <mxGeometry x="619.67" y="110" width="22.75" height="30" as="geometry" />
        </mxCell>
        <mxCell id="gVMDVW7nS_Y234lzFyvO-108" value="N" style="text;html=1;align=center;verticalAlign=middle;whiteSpace=wrap;rounded=0;" parent="1" vertex="1">
          <mxGeometry x="580.75" y="90" width="22.75" height="30" as="geometry" />
        </mxCell>
        <mxCell id="gVMDVW7nS_Y234lzFyvO-109" value="1" style="text;html=1;align=center;verticalAlign=middle;whiteSpace=wrap;rounded=0;" parent="1" vertex="1">
          <mxGeometry x="645.42" y="15" width="22.75" height="30" as="geometry" />
        </mxCell>
        <mxCell id="gdB1Cb4Rjj0UtszeyYK0-10" value="&lt;font style=&quot;font-size: 11px;&quot;&gt;has&amp;nbsp;&lt;/font&gt;&lt;span style=&quot;font-size: 11px; background-color: initial;&quot;&gt;key&amp;nbsp;&lt;/span&gt;&lt;div style=&quot;font-size: 11px;&quot;&gt;&lt;font style=&quot;font-size: 11px;&quot;&gt;attributes&lt;/font&gt;&lt;/div&gt;" style="rhombus;whiteSpace=wrap;html=1;" vertex="1" parent="1">
          <mxGeometry x="1097.62" y="510" width="85.13" height="70" as="geometry" />
        </mxCell>
        <mxCell id="gdB1Cb4Rjj0UtszeyYK0-13" style="edgeStyle=orthogonalEdgeStyle;rounded=0;orthogonalLoop=1;jettySize=auto;html=1;exitX=0.5;exitY=0;exitDx=0;exitDy=0;entryX=0.5;entryY=1;entryDx=0;entryDy=0;endArrow=none;endFill=0;" edge="1" parent="1" source="gdB1Cb4Rjj0UtszeyYK0-10" target="vzFSnmXwqkyDsA1X07gd-133">
          <mxGeometry relative="1" as="geometry" />
        </mxCell>
        <mxCell id="gdB1Cb4Rjj0UtszeyYK0-14" value="N" style="text;html=1;align=center;verticalAlign=middle;whiteSpace=wrap;rounded=0;" vertex="1" parent="1">
          <mxGeometry x="1127.8999999999999" y="435.52" width="7.58" height="10" as="geometry" />
        </mxCell>
        <mxCell id="gdB1Cb4Rjj0UtszeyYK0-17" value="&lt;div&gt;&lt;br&gt;&lt;/div&gt;is-a" style="triangle;whiteSpace=wrap;html=1;direction=north;rounded=1;" vertex="1" parent="1">
          <mxGeometry x="980" y="697" width="80" height="60" as="geometry" />
        </mxCell>
        <mxCell id="gdB1Cb4Rjj0UtszeyYK0-18" value="&lt;font style=&quot;font-size: 10px;&quot;&gt;&lt;b&gt;disjoint&lt;/b&gt;&lt;/font&gt;" style="text;html=1;align=center;verticalAlign=middle;whiteSpace=wrap;rounded=0;" vertex="1" parent="1">
          <mxGeometry x="1045.87" y="708.5" width="60" height="30" as="geometry" />
        </mxCell>
        <mxCell id="gdB1Cb4Rjj0UtszeyYK0-24" value="" style="endArrow=none;html=1;rounded=1;exitX=0.5;exitY=0;exitDx=0;exitDy=0;curved=0;" edge="1" parent="1">
          <mxGeometry width="50" height="50" relative="1" as="geometry">
            <mxPoint x="943.9999999999998" y="798" as="sourcePoint" />
            <mxPoint x="944" y="770" as="targetPoint" />
          </mxGeometry>
        </mxCell>
        <mxCell id="gdB1Cb4Rjj0UtszeyYK0-25" value="" style="endArrow=none;html=1;rounded=1;entryX=0;entryY=0.5;entryDx=0;entryDy=0;exitX=0.5;exitY=0;exitDx=0;exitDy=0;curved=0;" edge="1" parent="1" target="gdB1Cb4Rjj0UtszeyYK0-17">
          <mxGeometry width="50" height="50" relative="1" as="geometry">
            <mxPoint x="792" y="798" as="sourcePoint" />
            <mxPoint x="1050" y="740" as="targetPoint" />
            <Array as="points">
              <mxPoint x="792" y="770" />
              <mxPoint x="1020" y="770" />
            </Array>
          </mxGeometry>
        </mxCell>
        <mxCell id="gdB1Cb4Rjj0UtszeyYK0-26" value="" style="endArrow=none;html=1;rounded=1;entryX=0.5;entryY=0;entryDx=0;entryDy=0;curved=0;exitX=0;exitY=0.5;exitDx=0;exitDy=0;" edge="1" parent="1" source="gdB1Cb4Rjj0UtszeyYK0-17">
          <mxGeometry width="50" height="50" relative="1" as="geometry">
            <mxPoint x="1020" y="760" as="sourcePoint" />
            <mxPoint x="1250" y="796" as="targetPoint" />
            <Array as="points">
              <mxPoint x="1020" y="770" />
              <mxPoint x="1250" y="770" />
            </Array>
          </mxGeometry>
        </mxCell>
        <mxCell id="gdB1Cb4Rjj0UtszeyYK0-27" value="" style="endArrow=none;html=1;rounded=1;exitX=0.5;exitY=0;exitDx=0;exitDy=0;curved=0;" edge="1" parent="1">
          <mxGeometry width="50" height="50" relative="1" as="geometry">
            <mxPoint x="1094.25" y="798" as="sourcePoint" />
            <mxPoint x="1094" y="770" as="targetPoint" />
          </mxGeometry>
        </mxCell>
        <mxCell id="gdB1Cb4Rjj0UtszeyYK0-28" value="Physical" style="rounded=1;whiteSpace=wrap;html=1;" vertex="1" parent="1">
          <mxGeometry x="905" y="799" width="80" height="50" as="geometry" />
        </mxCell>
        <mxCell id="gdB1Cb4Rjj0UtszeyYK0-29" value="Mental" style="rounded=1;whiteSpace=wrap;html=1;" vertex="1" parent="1">
          <mxGeometry x="1055.48" y="799" width="80" height="50" as="geometry" />
        </mxCell>
        <mxCell id="gdB1Cb4Rjj0UtszeyYK0-30" value="Tehcnical" style="rounded=1;whiteSpace=wrap;html=1;" vertex="1" parent="1">
          <mxGeometry x="1210" y="799" width="80" height="50" as="geometry" />
        </mxCell>
        <mxCell id="gdB1Cb4Rjj0UtszeyYK0-31" value="Goalkeeping" style="rounded=1;whiteSpace=wrap;html=1;" vertex="1" parent="1">
          <mxGeometry x="753.5" y="799" width="80" height="50" as="geometry" />
        </mxCell>
        <mxCell id="gdB1Cb4Rjj0UtszeyYK0-39" style="edgeStyle=orthogonalEdgeStyle;rounded=0;orthogonalLoop=1;jettySize=auto;html=1;exitX=0.5;exitY=0;exitDx=0;exitDy=0;entryX=0.5;entryY=1;entryDx=0;entryDy=0;endArrow=none;endFill=0;" edge="1" parent="1" source="gdB1Cb4Rjj0UtszeyYK0-32" target="4">
          <mxGeometry relative="1" as="geometry" />
        </mxCell>
        <mxCell id="gdB1Cb4Rjj0UtszeyYK0-32" value="has&amp;nbsp;&lt;div&gt;attribute&lt;/div&gt;" style="rhombus;whiteSpace=wrap;html=1;" vertex="1" parent="1">
          <mxGeometry x="624.25" y="720" width="71.5" height="71.5" as="geometry" />
        </mxCell>
        <mxCell id="gdB1Cb4Rjj0UtszeyYK0-34" value="&lt;u&gt;rating&lt;/u&gt;" style="ellipse;whiteSpace=wrap;html=1;" vertex="1" parent="1">
          <mxGeometry x="703.4999999999999" y="697" width="60" height="40" as="geometry" />
        </mxCell>
        <mxCell id="gdB1Cb4Rjj0UtszeyYK0-38" value="" style="endArrow=none;html=1;rounded=0;exitX=0;exitY=0.5;exitDx=0;exitDy=0;entryX=1;entryY=0;entryDx=0;entryDy=0;" edge="1" parent="1" source="gdB1Cb4Rjj0UtszeyYK0-34" target="gdB1Cb4Rjj0UtszeyYK0-32">
          <mxGeometry width="50" height="50" relative="1" as="geometry">
            <mxPoint x="610" y="790" as="sourcePoint" />
            <mxPoint x="660" y="740" as="targetPoint" />
          </mxGeometry>
        </mxCell>
        <mxCell id="gdB1Cb4Rjj0UtszeyYK0-41" value="has&amp;nbsp;&lt;div&gt;attribute&lt;/div&gt;" style="rhombus;whiteSpace=wrap;html=1;" vertex="1" parent="1">
          <mxGeometry x="472.25" y="720" width="71.5" height="71.5" as="geometry" />
        </mxCell>
        <mxCell id="gdB1Cb4Rjj0UtszeyYK0-42" value="&lt;u&gt;rating&lt;/u&gt;" style="ellipse;whiteSpace=wrap;html=1;" vertex="1" parent="1">
          <mxGeometry x="553.4999999999999" y="697" width="60" height="40" as="geometry" />
        </mxCell>
        <mxCell id="gdB1Cb4Rjj0UtszeyYK0-43" value="" style="endArrow=none;html=1;rounded=0;exitX=0;exitY=0.5;exitDx=0;exitDy=0;entryX=1;entryY=0;entryDx=0;entryDy=0;" edge="1" parent="1" source="gdB1Cb4Rjj0UtszeyYK0-42" target="gdB1Cb4Rjj0UtszeyYK0-41">
          <mxGeometry width="50" height="50" relative="1" as="geometry">
            <mxPoint x="460" y="790" as="sourcePoint" />
            <mxPoint x="510" y="740" as="targetPoint" />
          </mxGeometry>
        </mxCell>
        <mxCell id="gdB1Cb4Rjj0UtszeyYK0-48" value="" style="endArrow=none;html=1;rounded=1;exitX=0.5;exitY=1;exitDx=0;exitDy=0;entryX=0.5;entryY=1;entryDx=0;entryDy=0;curved=0;" edge="1" parent="1" source="gdB1Cb4Rjj0UtszeyYK0-32" target="gdB1Cb4Rjj0UtszeyYK0-29">
          <mxGeometry width="50" height="50" relative="1" as="geometry">
            <mxPoint x="820" y="870" as="sourcePoint" />
            <mxPoint x="1010" y="910" as="targetPoint" />
            <Array as="points">
              <mxPoint x="660" y="900" />
              <mxPoint x="1095" y="900" />
            </Array>
          </mxGeometry>
        </mxCell>
        <mxCell id="gdB1Cb4Rjj0UtszeyYK0-49" value="" style="endArrow=none;html=1;rounded=0;entryX=0.5;entryY=1;entryDx=0;entryDy=0;" edge="1" parent="1" target="gdB1Cb4Rjj0UtszeyYK0-28">
          <mxGeometry width="50" height="50" relative="1" as="geometry">
            <mxPoint x="945" y="900" as="sourcePoint" />
            <mxPoint x="890" y="850" as="targetPoint" />
          </mxGeometry>
        </mxCell>
        <mxCell id="gdB1Cb4Rjj0UtszeyYK0-50" value="" style="endArrow=none;html=1;rounded=0;entryX=0.5;entryY=1;entryDx=0;entryDy=0;" edge="1" parent="1" target="gdB1Cb4Rjj0UtszeyYK0-31">
          <mxGeometry width="50" height="50" relative="1" as="geometry">
            <mxPoint x="794" y="900" as="sourcePoint" />
            <mxPoint x="890" y="850" as="targetPoint" />
          </mxGeometry>
        </mxCell>
        <mxCell id="gdB1Cb4Rjj0UtszeyYK0-51" value="" style="endArrow=none;html=1;rounded=1;exitX=0.5;exitY=1;exitDx=0;exitDy=0;entryX=0.5;entryY=1;entryDx=0;entryDy=0;curved=0;" edge="1" parent="1" source="gdB1Cb4Rjj0UtszeyYK0-41" target="gdB1Cb4Rjj0UtszeyYK0-30">
          <mxGeometry width="50" height="50" relative="1" as="geometry">
            <mxPoint x="660" y="900" as="sourcePoint" />
            <mxPoint x="710" y="850" as="targetPoint" />
            <Array as="points">
              <mxPoint x="508" y="920" />
              <mxPoint x="1250" y="920" />
            </Array>
          </mxGeometry>
        </mxCell>
        <mxCell id="gdB1Cb4Rjj0UtszeyYK0-52" value="" style="endArrow=none;html=1;rounded=0;" edge="1" parent="1">
          <mxGeometry width="50" height="50" relative="1" as="geometry">
            <mxPoint x="945" y="920" as="sourcePoint" />
            <mxPoint x="945" y="900" as="targetPoint" />
          </mxGeometry>
        </mxCell>
        <mxCell id="gdB1Cb4Rjj0UtszeyYK0-53" value="" style="endArrow=none;html=1;rounded=0;" edge="1" parent="1">
          <mxGeometry width="50" height="50" relative="1" as="geometry">
            <mxPoint x="1095" y="920" as="sourcePoint" />
            <mxPoint x="1095" y="890" as="targetPoint" />
          </mxGeometry>
        </mxCell>
        <mxCell id="gdB1Cb4Rjj0UtszeyYK0-54" value="N" style="text;html=1;align=center;verticalAlign=middle;whiteSpace=wrap;rounded=0;" vertex="1" parent="1">
          <mxGeometry x="670" y="675.48" width="7.58" height="10" as="geometry" />
        </mxCell>
        <mxCell id="gdB1Cb4Rjj0UtszeyYK0-55" value="N" style="text;html=1;align=center;verticalAlign=middle;whiteSpace=wrap;rounded=0;" vertex="1" parent="1">
          <mxGeometry x="515.42" y="675.48" width="7.58" height="10" as="geometry" />
        </mxCell>
        <mxCell id="gdB1Cb4Rjj0UtszeyYK0-56" value="N" style="text;html=1;align=center;verticalAlign=middle;whiteSpace=wrap;rounded=0;" vertex="1" parent="1">
          <mxGeometry x="799.71" y="854" width="7.58" height="10" as="geometry" />
        </mxCell>
        <mxCell id="gdB1Cb4Rjj0UtszeyYK0-57" value="N" style="text;html=1;align=center;verticalAlign=middle;whiteSpace=wrap;rounded=0;" vertex="1" parent="1">
          <mxGeometry x="954.46" y="854" width="7.58" height="10" as="geometry" />
        </mxCell>
        <mxCell id="gdB1Cb4Rjj0UtszeyYK0-58" value="N" style="text;html=1;align=center;verticalAlign=middle;whiteSpace=wrap;rounded=0;" vertex="1" parent="1">
          <mxGeometry x="1105.8700000000001" y="854" width="7.58" height="10" as="geometry" />
        </mxCell>
        <mxCell id="gdB1Cb4Rjj0UtszeyYK0-59" value="N" style="text;html=1;align=center;verticalAlign=middle;whiteSpace=wrap;rounded=0;" vertex="1" parent="1">
          <mxGeometry x="1256.21" y="854" width="7.58" height="10" as="geometry" />
        </mxCell>
        <mxCell id="gdB1Cb4Rjj0UtszeyYK0-60" value="" style="endArrow=none;html=1;rounded=0;exitX=0.948;exitY=0.283;exitDx=0;exitDy=0;exitPerimeter=0;entryX=0;entryY=0.75;entryDx=0;entryDy=0;" edge="1" parent="1" source="BPTk4Z4PryNuK3dZAGBa-43" target="lveurod9TtLe9vHSPx2q-1">
          <mxGeometry width="50" height="50" relative="1" as="geometry">
            <mxPoint x="580" y="520" as="sourcePoint" />
            <mxPoint x="630" y="470" as="targetPoint" />
          </mxGeometry>
        </mxCell>
      </root>
    </mxGraphModel>
  </diagram>
</mxfile>
